<svg width="64" height="64" viewBox="0 0 64 64" fill="none" xmlns="http://www.w3.org/2000/svg">
<g clip-path="url(#clip0_52346_2459)">
<path fill-rule="evenodd" clip-rule="evenodd" d="M31.55 63.1005C37.79 63.1005 43.8899 61.2499 49.0782 57.7831C54.2666 54.3164 58.3105 49.3889 60.6984 43.6239C63.0863 37.8589 63.7111 31.5155 62.4938 25.3954C61.2764 19.2753 58.2716 13.6535 53.8592 9.24112C49.4469 4.82877 43.8252 1.82372 37.7051 0.606356C31.585 -0.611008 25.2413 0.0133331 19.4763 2.40128C13.7113 4.78922 8.7839 8.834 5.31714 14.0224C1.85038 19.2107 1.58593e-06 25.3097 1.58593e-06 31.5497C-0.00131237 35.6933 0.813857 39.7965 2.39893 43.6249C3.984 47.4533 6.30791 50.9323 9.23786 53.8622C12.1678 56.7922 15.6464 59.116 19.4748 60.7011C23.3032 62.2862 27.4064 63.1018 31.55 63.1005ZM42.71 20.4003C43.0029 20.1075 43.3505 19.8752 43.7331 19.7167C44.1158 19.5582 44.5259 19.4765 44.94 19.4765C45.3542 19.4765 45.7642 19.5582 46.1469 19.7167C46.5295 19.8752 46.8772 20.1075 47.17 20.4003C47.4628 20.6931 47.6951 21.0411 47.8536 21.4237C48.0121 21.8064 48.0937 22.2156 48.0937 22.6298C48.0937 23.0439 48.0121 23.4542 47.8536 23.8368C47.6951 24.2194 47.4628 24.5674 47.17 24.8603L29.33 42.7001C29.0383 42.9931 28.6915 43.226 28.3097 43.3847C27.9279 43.5433 27.5185 43.6249 27.105 43.6249C26.6915 43.6249 26.2821 43.5433 25.9003 43.3847C25.5185 43.226 25.1718 42.9931 24.88 42.7001L15.96 33.79C15.3948 33.1999 15.0802 32.4137 15.0821 31.5966C15.084 30.7795 15.4024 29.9955 15.9704 29.4081C16.5384 28.8207 17.3119 28.4756 18.1285 28.4462C18.945 28.4168 19.7413 28.7048 20.35 29.2499L20.43 29.3202L27.12 36.0204L42.74 20.4003H42.71Z" fill="url(#paint0_linear_52346_2459)"/>
</g>
<defs>
<linearGradient id="paint0_linear_52346_2459" x1="0" y1="31.5536" x2="63.1" y2="31.5536" gradientUnits="userSpaceOnUse">
<stop stop-color="#017EFF"/>
<stop offset="1" stop-color="#97C4FF"/>
</linearGradient>
<clipPath id="clip0_52346_2459">
<rect width="64" height="64" fill="white"/>
</clipPath>
</defs>
</svg>
