<svg width="52" height="52" viewBox="0 0 52 52" fill="none" xmlns="http://www.w3.org/2000/svg">
<path d="M26.2899 51.66C21.2788 51.652 16.3826 50.1582 12.2209 47.367C8.05917 44.5758 4.81894 40.6125 2.90999 35.9793C1.00103 31.3461 0.509214 26.2505 1.49678 21.3377C2.48434 16.4249 4.90691 11.9153 8.45796 8.37968C12.009 4.84403 16.529 2.44159 21.446 1.47539C26.363 0.509179 31.4561 1.02288 36.081 2.95195C40.7059 4.88102 44.6547 8.13848 47.4278 12.3123C50.2009 16.4861 51.6737 21.3891 51.6599 26.4002C51.6586 29.7263 51.0007 33.0193 49.7239 36.0906C48.4472 39.1619 46.5766 41.9509 44.2196 44.2976C41.8625 46.6444 39.0655 48.503 35.9887 49.7664C32.9119 51.0298 29.6159 51.6731 26.2899 51.66ZM18.6999 23.66C17.3399 23.66 15.9898 23.66 14.6398 23.66C13.8298 23.66 13.4698 23.9 13.5098 24.74C13.5098 25.74 13.5098 26.8096 13.5098 27.8396C13.5098 28.7096 13.8099 29.0198 14.6999 28.9998C17.3199 28.9998 19.9399 28.9998 22.5599 28.9998C23.4599 28.9998 23.7199 29.28 23.7099 30.16C23.6599 32.78 23.7099 35.4003 23.7099 38.0203C23.7099 38.9203 24.0298 39.2302 24.8898 39.1902C25.8023 39.1352 26.7173 39.1352 27.6298 39.1902C28.6298 39.2602 29.1099 38.9298 29.0699 37.7898C28.9899 35.3298 29.0699 32.8602 29.0699 30.4002C29.0699 29.3502 29.3099 28.9403 30.4399 28.9803C33.0199 29.0603 35.6099 28.9803 38.1899 28.9803C38.9499 28.9803 39.2898 28.7403 39.2598 27.9803C39.2598 26.9103 39.2598 25.8403 39.2598 24.7703C39.2598 23.9503 38.9598 23.6597 38.1398 23.6697C35.4698 23.6697 32.8098 23.6697 30.1398 23.6697C29.2998 23.6697 29.0499 23.3901 29.0599 22.5701C29.0599 19.9501 29.0599 17.32 29.0599 14.7C29.0599 13.7 28.7299 13.4295 27.8199 13.4695C26.9074 13.5245 25.9924 13.5245 25.0799 13.4695C24.0799 13.3995 23.6799 13.7203 23.7099 14.8103C23.7799 17.3503 23.7099 19.8895 23.7099 22.4295C23.7099 23.3295 23.4998 23.7297 22.5198 23.6697C21.2098 23.5697 19.9399 23.66 18.6699 23.66H18.6999Z" fill="#606060"/>
</svg>
